<svg width="27" height="24" viewBox="0 0 27 24" fill="none" xmlns="http://www.w3.org/2000/svg">
<path d="M19.6428 8C19.6428 6.4087 18.9655 4.88258 17.7599 3.75736C16.5544 2.63214 14.9192 2 13.2143 2C11.5093 2 9.87416 2.63214 8.66857 3.75736C7.46298 4.88258 6.78569 6.4087 6.78569 8C6.78569 15 3.5714 17 3.5714 17H22.8571C22.8571 17 19.6428 15 19.6428 8Z" stroke="#747474" stroke-width="2" stroke-linecap="round" stroke-linejoin="round"/>
<path d="M15.0678 21C14.8795 21.3031 14.6091 21.5547 14.2838 21.7295C13.9585 21.9044 13.5897 21.9965 13.2143 21.9965C12.8389 21.9965 12.47 21.9044 12.1447 21.7295C11.8194 21.5547 11.5491 21.3031 11.3607 21" stroke="#747474" stroke-width="2" stroke-linecap="round" stroke-linejoin="round"/>
</svg>
