<svg width="27" height="24" viewBox="0 0 27 24" fill="none" xmlns="http://www.w3.org/2000/svg">
<path d="M15.9286 2H7.35715C6.78883 2 6.24379 2.21071 5.84192 2.58579C5.44006 2.96086 5.21429 3.46957 5.21429 4V20C5.21429 20.5304 5.44006 21.0391 5.84192 21.4142C6.24379 21.7893 6.78883 22 7.35715 22H20.2143C20.7826 22 21.3277 21.7893 21.7295 21.4142C22.1314 21.0391 22.3571 20.5304 22.3571 20V8L15.9286 2Z" stroke="#747474" stroke-width="2" stroke-linecap="round" stroke-linejoin="round"/>
<path d="M15.9286 2V8H22.3571" stroke="#747474" stroke-width="2" stroke-linecap="round" stroke-linejoin="round"/>
<path d="M18.0714 13H9.5" stroke="#747474" stroke-width="2" stroke-linecap="round" stroke-linejoin="round"/>
<path d="M18.0714 17H9.5" stroke="#747474" stroke-width="2" stroke-linecap="round" stroke-linejoin="round"/>
<path d="M11.6429 9H10.5714H9.5" stroke="#747474" stroke-width="2" stroke-linecap="round" stroke-linejoin="round"/>
</svg>
